<?xml version="1.0" encoding="UTF-8" standalone="no"?>
<svg
   xmlns:dc="http://purl.org/dc/elements/1.1/"
   xmlns:cc="http://creativecommons.org/ns#"
   xmlns:rdf="http://www.w3.org/1999/02/22-rdf-syntax-ns#"
   xmlns:svg="http://www.w3.org/2000/svg"
   xmlns="http://www.w3.org/2000/svg"
   xmlns:sodipodi="http://sodipodi.sourceforge.net/DTD/sodipodi-0.dtd"
   xmlns:inkscape="http://www.inkscape.org/namespaces/inkscape"
   width="453.76611mm"
   height="44.158958mm"
   viewBox="0 0 453.76611 44.158958"
   version="1.1"
   id="svg8"
   inkscape:version="1.0.2 (e86c870879, 2021-01-15)"
   sodipodi:docname="pbs-logo.svg">
  <defs
     id="defs2" />
  <sodipodi:namedview
     id="base"
     pagecolor="#ffffff"
     bordercolor="#666666"
     borderopacity="1.0"
     inkscape:pageopacity="0.0"
     inkscape:pageshadow="2"
     inkscape:zoom="0.49497475"
     inkscape:cx="1005.4052"
     inkscape:cy="190.24059"
     inkscape:document-units="mm"
     inkscape:current-layer="layer1"
     inkscape:document-rotation="0"
     showgrid="false"
     fit-margin-top="0"
     fit-margin-left="0"
     fit-margin-right="0"
     fit-margin-bottom="0"
     inkscape:window-width="1920"
     inkscape:window-height="1137"
     inkscape:window-x="-8"
     inkscape:window-y="-8"
     inkscape:window-maximized="1" />
  <metadata
     id="metadata5">
    <rdf:RDF>
      <cc:Work
         rdf:about="">
        <dc:format>image/svg+xml</dc:format>
        <dc:type
           rdf:resource="http://purl.org/dc/dcmitype/StillImage" />
        <dc:title></dc:title>
      </cc:Work>
    </rdf:RDF>
  </metadata>
  <g
     inkscape:label="Layer 1"
     inkscape:groupmode="layer"
     id="layer1"
     transform="translate(18.89881,-35.372902)">
    <g
       id="g36"
       transform="matrix(0.26458333,0,0,0.26458333,-19.295685,35.372902)">
	<path
   class="st0"
   d="m 336.6,6.8 h -64.3 v 157.5 h 34.6 v -47.1 h 26.3 c 35.3,0 63.7,-18.9 63.7,-55.3 V 61.5 C 396.9,29 374.2,6.8 336.6,6.8 Z m 25.2,55.5 c 0,13.5 -10.1,23.8 -27.4,23.8 H 307 v -48 h 26.8 c 17.3,0 28.1,8.3 28.1,23.8 z"
   id="path12" />

	<path
   class="st0"
   d="M 446.6,67.9 V 43.7 h -34.2 v 120.6 h 34.2 v -44.5 c 0,-28.8 13.9,-42.5 36.7,-42.5 h 1.8 V 41.4 c -20.3,-0.9 -31.5,9.9 -38.5,26.5 z"
   id="path14" />

	<path
   class="st0"
   d="m 553.4,41.4 c -35.1,0 -59.6,28.4 -59.6,62.7 v 0.5 c 0,36.9 26.8,62.3 63,62.3 21.8,0 38,-8.5 49.3,-22.5 L 586.5,127 c -9.5,8.8 -17.8,12.4 -29.3,12.4 -15.3,0 -26.1,-8.1 -29.5,-23.6 h 83.9 c 0.2,-3.2 0.4,-6.3 0.4,-9 0.2,-34.1 -18.2,-65.4 -58.6,-65.4 z m -26,53.1 C 530.1,79 539.3,69 553.5,69 c 14.2,0 23.4,10.4 25.5,25.5 z"
   id="path16" />

	<path
   class="st0"
   d="m 703.9,41.4 c -17.8,0 -29.3,8.3 -37.6,19.6 V 0 h -34.2 v 164.2 h 34.2 v -15.7 c 8.1,9.7 19.3,18 37.6,18 28.6,0 54.9,-22.1 54.9,-62.3 v -0.4 C 758.8,63.4 732,41.4 703.9,41.4 Z m 20.7,62.7 c 0,20.2 -13.5,33.3 -29.5,33.3 -16,0 -29.2,-13.3 -29.2,-33.3 v -0.4 c 0,-20 13.3,-33.3 29.2,-33.3 16,0 29.5,13.3 29.5,33.3 z"
   id="path18" />

	<rect
   x="778.79999"
   y="0.40000001"
   class="st0"
   width="36"
   height="30.4"
   id="rect20" />

	<rect
   x="779.90002"
   y="43.700001"
   class="st0"
   width="34.200001"
   height="120.6"
   id="rect22" />

	<path
   class="st0"
   d="m 927.3,0 v 59.4 c -8.1,-9.7 -19.3,-18 -37.6,-18 -28.6,0 -54.9,22 -54.9,62.3 v 0.4 c 0,40.3 26.8,62.3 54.9,62.3 17.8,0 29.2,-8.3 37.6,-19.6 v 17.3 h 34.2 V 0 Z m 0.5,104.2 c 0,20 -13.3,33.3 -29.2,33.3 -16,0 -29.5,-13.3 -29.5,-33.3 v -0.4 c 0,-20.2 13.5,-33.3 29.5,-33.3 16,0 29.2,13.3 29.2,33.3 z"
   id="path24" />

	<path
   class="st1"
   d="M 139.1,32.6 H 6.9 c -3,0 -5.4,-2.4 -5.4,-5.4 v 0 c 0,-3 2.4,-5.4 5.4,-5.4 h 132.3 c 3,0 5.4,2.4 5.4,5.4 v 0 c -0.1,3 -2.5,5.4 -5.5,5.4 z"
   id="path26" />

	<path
   class="st1"
   d="M 190,61.1 H 31.8 c -3,0 -5.4,-2.4 -5.4,-5.4 v 0 c 0,-3 2.4,-5.4 5.4,-5.4 H 190 c 3,0 5.4,2.4 5.4,5.4 v 0 c 0,3 -2.5,5.4 -5.4,5.4 z"
   id="path28" />

	<path
   class="st1"
   d="M 174.2,146.6 H 16 c -3,0 -5.4,-2.4 -5.4,-5.4 v 0 c 0,-3 2.4,-5.4 5.4,-5.4 h 158.2 c 3,0 5.4,2.4 5.4,5.4 v 0 c 0,3 -2.4,5.4 -5.4,5.4 z"
   id="path30" />

	<path
   class="st1"
   d="m 120.3,89.6 h -98 c -3,0 -5.4,-2.4 -5.4,-5.4 v 0 c 0,-3 2.4,-5.4 5.4,-5.4 h 98 c 3,0 5.4,2.4 5.4,5.4 v 0 c 0,3 -2.4,5.4 -5.4,5.4 z"
   id="path32" />

	<path
   class="st1"
   d="M 162.7,118.1 H 50.2 c -3,0 -5.4,-2.4 -5.4,-5.4 v 0 c 0,-3 2.4,-5.4 5.4,-5.4 h 112.5 c 3,0 5.4,2.4 5.4,5.4 v 0 c 0,3 -2.4,5.4 -5.4,5.4 z"
   id="path34" />

</g>
    <path
       id="Path_2291"
       data-name="Path 2291"
       d="m 278.41659,67.25199 a 10.784982,10.784982 0 0 1 -4.06468,8.901991 17.664385,17.664385 0 0 1 -11.31423,3.246544 26.569625,26.569625 0 0 1 -11.8142,-2.509575 v -8.213733 a 48.697994,48.697994 0 0 0 7.14241,2.652427 21.151162,21.151162 0 0 0 5.35033,0.769477 7.6066264,7.6066264 0 0 0 4.464,-1.113534 3.8049365,3.8049365 0 0 0 1.55509,-3.311467 3.6523495,3.6523495 0 0 0 -0.68505,-2.181668 7.6618176,7.6618176 0 0 0 -2.01287,-1.840788 51.736748,51.736748 0 0 0 -5.40875,-2.824475 25.62813,25.62813 0 0 1 -5.73665,-3.45108 12.96016,12.96016 0 0 1 -3.05177,-3.853625 10.99276,10.99276 0 0 1 -1.14274,-5.13602 10.781735,10.781735 0 0 1 3.75303,-8.703956 15.583358,15.583358 0 0 1 10.37272,-3.168613 24.491843,24.491843 0 0 1 6.2074,0.769475 42.659443,42.659443 0 0 1 6.16845,2.168688 l -2.85372,6.876148 a 41.747166,41.747166 0 0 0 -5.51913,-1.912198 17.77152,17.77152 0 0 0 -4.29518,-0.542227 5.6879256,5.6879256 0 0 0 -3.85368,1.168749 3.8601275,3.8601275 0 0 0 -1.3408,3.051753 3.7789643,3.7789643 0 0 0 0.54211,2.038817 5.9606343,5.9606343 0 0 0 1.72715,1.684951 53.376246,53.376246 0 0 0 5.6068,2.921886 22.310173,22.310173 0 0 1 8.01899,5.606758 10.944063,10.944063 0 0 1 2.18492,6.905378 z m 20.10265,-14.713286 a 5.5191059,5.5191059 0 0 0 -4.33739,1.756382 8.1163321,8.1163321 0 0 0 -1.79859,4.980185 h 12.21352 a 7.2560009,7.2560009 0 0 0 -1.68496,-4.980185 5.7009118,5.7009118 0 0 0 -4.39258,-1.756382 z m 1.22719,26.878054 a 16.466414,16.466414 0 0 1 -12.04145,-4.252962 16.099556,16.099556 0 0 1 -4.33739,-12.041388 17.706591,17.706591 0 0 1 4.00948,-12.398512 14.284745,14.284745 0 0 1 11.08697,-4.37958 14.050995,14.050995 0 0 1 10.52856,3.853645 14.573686,14.573686 0 0 1 3.76603,10.64213 v 4.220495 h -20.58639 a 8.3760547,8.3760547 0 0 0 2.19791,5.791813 7.7299948,7.7299948 0 0 0 5.76262,2.084267 23.926946,23.926946 0 0 0 5.44771,-0.594127 27.270877,27.270877 0 0 0 5.36331,-1.912219 v 6.733318 a 20.433678,20.433678 0 0 1 -4.86982,1.697936 30.764145,30.764145 0 0 1 -6.34053,0.545417 z m 37.8807,-33.082168 a 14.034762,14.034762 0 0 1 2.93811,0.256444 l -0.64934,8.161784 a 9.9701025,9.9701025 0 0 0 -2.568,-0.285652 9.2298929,9.2298929 0 0 0 -6.49307,2.139456 7.7364879,7.7364879 0 0 0 -2.33102,5.996359 v 16.232655 h -8.70399 V 46.935194 h 6.5905 l 1.29862,5.363278 h 0.4286 a 11.992692,11.992692 0 0 1 4.00946,-4.324382 9.8856926,9.8856926 0 0 1 5.48015,-1.63949 z m 16.32031,32.501025 -12.15501,-31.900431 h 9.0903 l 6.1684,18.180589 a 32.432864,32.432864 0 0 1 1.29861,6.535269 h 0.17203 a 28.413655,28.413655 0 0 1 1.29863,-6.535269 l 6.13594,-18.180589 h 9.09029 l -12.16801,31.900431 z m 38.86425,-26.296911 a 5.5191059,5.5191059 0 0 0 -4.33736,1.756382 8.1163321,8.1163321 0 0 0 -1.79857,4.980185 h 12.21344 a 7.2560009,7.2560009 0 0 0 -1.68494,-4.980185 5.7009118,5.7009118 0 0 0 -4.39257,-1.756382 z m 1.2272,26.878054 a 16.466414,16.466414 0 0 1 -12.0414,-4.252962 16.099556,16.099556 0 0 1 -4.33736,-12.041388 17.706591,17.706591 0 0 1 4.00946,-12.398512 14.284745,14.284745 0 0 1 11.08691,-4.37958 14.050995,14.050995 0 0 1 10.52851,3.853645 14.573686,14.573686 0 0 1 3.76598,10.64213 v 4.220495 h -20.57652 a 8.3760547,8.3760547 0 0 0 2.1979,5.791813 7.7299948,7.7299948 0 0 0 5.76259,2.084267 23.926946,23.926946 0 0 0 5.45093,-0.594127 27.270877,27.270877 0 0 0 5.36327,-1.912219 v 6.733318 a 20.433678,20.433678 0 0 1 -4.86979,1.697936 30.764145,30.764145 0 0 1 -6.34048,0.545417 z M 431.92917,46.33459 a 14.034762,14.034762 0 0 1 2.93812,0.256444 l -0.64935,8.161784 a 9.9701025,9.9701025 0 0 0 -2.56801,-0.285652 9.2298929,9.2298929 0 0 0 -6.49306,2.139456 7.7364879,7.7364879 0 0 0 -2.32776,5.996359 v 16.232655 h -8.70396 V 46.935194 h 6.59046 l 1.29861,5.363278 h 0.4286 a 11.992692,11.992692 0 0 1 3.98999,-4.321123 9.8856926,9.8856926 0 0 1 5.49639,-1.642749 z"
       fill="#ff6f00"
       style="stroke-width:3.24653" />
  </g>
  <style
     type="text/css"
     id="style10">
	.st0{fill:#18A9E1;}
	.st1{fill:#FF6F00;}
</style>
</svg>
